<svg width="45" height="102" viewBox="0 0 45 102" fill="none" xmlns="http://www.w3.org/2000/svg">
<path d="M5.49449 28.4245C4.87545 31.0703 3.60248 34 1 34C3.54972 30.1737 1.00652 22.1246 3.54973 11.9794C4.71647 7.3251 15.2792 -3.32589 27.4472 2.90554C38.0804 8.35101 44 0.500426 44 1.70298C44 2.90553 44 6.99713 38.8478 12.0887C33.5323 17.3416 27.3339 15.5604 23.7201 14.2752C19.8549 12.9006 15.2792 14.2752 15.2792 14.2752C15.2792 14.2752 9.00237 15.415 7.60572 21.1625C7.19591 22.849 6.26184 25.1448 5.49449 28.4245Z" fill="#FECA3C" stroke="#FECD42"/>
<path d="M34 89.0404C34 77.0748 29.0403 66.7143 27.2258 63L23.9597 81.7733L19 93.2795L25.1694 102C28.6774 100.183 34 99.941 34 89.0404Z" fill="#E50707"/>
<rect x="24" y="59" width="8" height="8" rx="3" fill="#E60707"/>
</svg>
